G04*
G04 #@! TF.GenerationSoftware,Altium Limited,Altium Designer,22.6.1 (34)*
G04*
G04 Layer_Color=8421504*
%FSLAX44Y44*%
%MOMM*%
G71*
G04*
G04 #@! TF.SameCoordinates,72EB69C3-9BB9-4872-A384-3B2A4397978F*
G04*
G04*
G04 #@! TF.FilePolarity,Positive*
G04*
G01*
G75*
%ADD16R,6.8000X5.5500*%
%ADD17R,2.4000X1.0000*%
%ADD18R,0.9000X2.0000*%
%ADD19R,2.0000X0.9000*%
%ADD20R,1.3300X1.3300*%
%ADD21R,1.5240X0.7620*%
%ADD22R,0.7620X1.5240*%
%ADD23C,1.2600*%
%ADD24R,1.6000X1.3950*%
%ADD25R,0.9000X0.8000*%
%ADD26R,0.3500X0.2300*%
%ADD27R,0.2300X0.3500*%
%ADD28R,0.9000X1.4500*%
%ADD29R,1.2200X0.9700*%
%ADD30R,1.4000X1.0000*%
G04:AMPARAMS|DCode=31|XSize=0.4mm|YSize=2mm|CornerRadius=0.1mm|HoleSize=0mm|Usage=FLASHONLY|Rotation=0.000|XOffset=0mm|YOffset=0mm|HoleType=Round|Shape=RoundedRectangle|*
%AMROUNDEDRECTD31*
21,1,0.4000,1.8000,0,0,0.0*
21,1,0.2000,2.0000,0,0,0.0*
1,1,0.2000,0.1000,-0.9000*
1,1,0.2000,-0.1000,-0.9000*
1,1,0.2000,-0.1000,0.9000*
1,1,0.2000,0.1000,0.9000*
%
%ADD31ROUNDEDRECTD31*%
%ADD32R,1.8000X1.9000*%
G04:AMPARAMS|DCode=33|XSize=1.0746mm|YSize=0.538mm|CornerRadius=0.269mm|HoleSize=0mm|Usage=FLASHONLY|Rotation=180.000|XOffset=0mm|YOffset=0mm|HoleType=Round|Shape=RoundedRectangle|*
%AMROUNDEDRECTD33*
21,1,1.0746,0.0000,0,0,180.0*
21,1,0.5366,0.5380,0,0,180.0*
1,1,0.5380,-0.2683,0.0000*
1,1,0.5380,0.2683,0.0000*
1,1,0.5380,0.2683,0.0000*
1,1,0.5380,-0.2683,0.0000*
%
%ADD33ROUNDEDRECTD33*%
%ADD34R,1.0746X0.5380*%
%ADD35R,0.5000X0.6000*%
%ADD36R,1.0000X1.4000*%
%ADD37R,3.0000X1.6000*%
%ADD38R,5.5000X1.0000*%
G04:AMPARAMS|DCode=39|XSize=1.3383mm|YSize=0.578mm|CornerRadius=0.289mm|HoleSize=0mm|Usage=FLASHONLY|Rotation=270.000|XOffset=0mm|YOffset=0mm|HoleType=Round|Shape=RoundedRectangle|*
%AMROUNDEDRECTD39*
21,1,1.3383,0.0000,0,0,270.0*
21,1,0.7603,0.5780,0,0,270.0*
1,1,0.5780,0.0000,-0.3802*
1,1,0.5780,0.0000,0.3802*
1,1,0.5780,0.0000,0.3802*
1,1,0.5780,0.0000,-0.3802*
%
%ADD39ROUNDEDRECTD39*%
%ADD40R,0.5780X1.3383*%
G36*
X839846Y666060D02*
X830821Y666060D01*
X830134D01*
X828787Y666329D01*
X827517Y666854D01*
X826375Y667618D01*
X825403Y668589D01*
X824640Y669732D01*
X824114Y671001D01*
X823846Y672348D01*
Y673036D01*
Y673085D01*
Y673773D01*
X824114Y675120D01*
X824640Y676389D01*
X825403Y677532D01*
X826375Y678503D01*
X827517Y679267D01*
X828787Y679792D01*
X830134Y680061D01*
X830821D01*
Y680061D01*
X839846D01*
Y666060D01*
D02*
G37*
G36*
X988157Y997106D02*
X979132Y997106D01*
X978445D01*
X977097Y997374D01*
X975828Y997899D01*
X974685Y998663D01*
X973714Y999634D01*
X972951Y1000777D01*
X972425Y1002046D01*
X972157Y1003394D01*
Y1004081D01*
Y1004131D01*
Y1004818D01*
X972425Y1006165D01*
X972951Y1007434D01*
X973714Y1008577D01*
X974685Y1009548D01*
X975828Y1010312D01*
X977097Y1010837D01*
X978445Y1011106D01*
X979132D01*
Y1011106D01*
X988157D01*
Y997106D01*
D02*
G37*
D16*
X684070Y977700D02*
D03*
D17*
X748070Y1000500D02*
D03*
Y954900D02*
D03*
D18*
X1285400Y850000D02*
D03*
X1272700D02*
D03*
X1260000D02*
D03*
X1247300D02*
D03*
X1234600D02*
D03*
X1221900D02*
D03*
X1209200D02*
D03*
X1196500D02*
D03*
X1183800D02*
D03*
X1171100D02*
D03*
X1158400D02*
D03*
X1145700D02*
D03*
X1133000D02*
D03*
X1120300D02*
D03*
Y680000D02*
D03*
X1133000D02*
D03*
X1145700D02*
D03*
X1158400D02*
D03*
X1171100D02*
D03*
X1183800D02*
D03*
X1196500D02*
D03*
X1209200D02*
D03*
X1221900D02*
D03*
X1234600D02*
D03*
X1247300D02*
D03*
X1260000D02*
D03*
X1272700D02*
D03*
X1285400D02*
D03*
D19*
X1110300Y822150D02*
D03*
Y809450D02*
D03*
Y796750D02*
D03*
Y784050D02*
D03*
Y771350D02*
D03*
Y758650D02*
D03*
Y745950D02*
D03*
Y733250D02*
D03*
Y720550D02*
D03*
Y707850D02*
D03*
D20*
X1228750Y793350D02*
D03*
Y775000D02*
D03*
Y756650D02*
D03*
X1210400Y793350D02*
D03*
Y775000D02*
D03*
Y756650D02*
D03*
X1192050Y793350D02*
D03*
Y775000D02*
D03*
Y756650D02*
D03*
D21*
X1229093Y1006949D02*
D03*
Y989169D02*
D03*
X977964Y687610D02*
D03*
Y705390D02*
D03*
X1020876Y840687D02*
D03*
Y822907D02*
D03*
X1238520Y958901D02*
D03*
Y976681D02*
D03*
X884618Y852258D02*
D03*
Y870038D02*
D03*
X858344Y822172D02*
D03*
Y839952D02*
D03*
Y870038D02*
D03*
Y852258D02*
D03*
Y807667D02*
D03*
Y789887D02*
D03*
X775062Y1018731D02*
D03*
Y1000951D02*
D03*
X766565Y792354D02*
D03*
Y774574D02*
D03*
X775180Y953261D02*
D03*
Y935481D02*
D03*
X715080Y854817D02*
D03*
Y837037D02*
D03*
X812259Y794209D02*
D03*
Y776429D02*
D03*
D22*
X1045548Y904158D02*
D03*
X1027768D02*
D03*
X1045884Y942234D02*
D03*
X1028104D02*
D03*
X1027694Y885346D02*
D03*
X1045474D02*
D03*
X1052628Y723639D02*
D03*
X1070408D02*
D03*
X1136439Y900770D02*
D03*
X1118659D02*
D03*
X1088110Y856068D02*
D03*
X1070330D02*
D03*
X1085988Y796789D02*
D03*
X1068208D02*
D03*
X1041832Y756862D02*
D03*
X1059612D02*
D03*
X1256183Y882610D02*
D03*
X1273963D02*
D03*
X1256183Y909493D02*
D03*
X1273963D02*
D03*
X1027768Y922599D02*
D03*
X1045548D02*
D03*
X1126607Y653628D02*
D03*
X1108827D02*
D03*
X701110Y690000D02*
D03*
X718890D02*
D03*
X706190Y760417D02*
D03*
X723970D02*
D03*
X894802Y955354D02*
D03*
X877022D02*
D03*
D23*
X832511Y673061D02*
D03*
X980821Y1004106D02*
D03*
D24*
X831846Y650585D02*
D03*
Y695536D02*
D03*
X915946D02*
D03*
Y650585D02*
D03*
X980157Y981631D02*
D03*
Y1026581D02*
D03*
X1064257D02*
D03*
Y981631D02*
D03*
D25*
X897946Y814984D02*
D03*
Y833984D02*
D03*
X877946Y824483D02*
D03*
X903441Y785180D02*
D03*
Y766180D02*
D03*
X923441Y775680D02*
D03*
D26*
X1066720Y913227D02*
D03*
Y917527D02*
D03*
Y921827D02*
D03*
Y926127D02*
D03*
Y930427D02*
D03*
Y934727D02*
D03*
Y939027D02*
D03*
Y943327D02*
D03*
X1091720D02*
D03*
Y939027D02*
D03*
Y934727D02*
D03*
Y930427D02*
D03*
Y926127D02*
D03*
Y921827D02*
D03*
Y917527D02*
D03*
Y913227D02*
D03*
D27*
X1072770D02*
D03*
Y943327D02*
D03*
X1077070D02*
D03*
X1081370D02*
D03*
X1085670D02*
D03*
X1077070Y913227D02*
D03*
X1081370D02*
D03*
X1085670D02*
D03*
D28*
X1155709Y654215D02*
D03*
X1175709D02*
D03*
X852172Y955354D02*
D03*
X832172D02*
D03*
X771919Y755359D02*
D03*
X751919D02*
D03*
D29*
X640125Y758707D02*
D03*
Y725907D02*
D03*
D30*
X975864Y815483D02*
D03*
X997864Y824983D02*
D03*
Y805983D02*
D03*
D31*
X719800Y654287D02*
D03*
X713300D02*
D03*
X706800D02*
D03*
X700300D02*
D03*
X693800D02*
D03*
D32*
X695300Y624287D02*
D03*
X718300D02*
D03*
D33*
X1022328Y790451D02*
D03*
X1041028Y799951D02*
D03*
D34*
Y780951D02*
D03*
D35*
X640537Y694138D02*
D03*
Y684138D02*
D03*
D36*
X829535Y887682D02*
D03*
X839035Y865682D02*
D03*
X820035D02*
D03*
D37*
X640125Y887945D02*
D03*
Y819945D02*
D03*
D38*
X662625Y843945D02*
D03*
Y863945D02*
D03*
D39*
X744270Y782628D02*
D03*
X725270D02*
D03*
Y804952D02*
D03*
X734770D02*
D03*
D40*
X744270D02*
D03*
M02*
