G04*
G04 #@! TF.GenerationSoftware,Altium Limited,Altium Designer,22.6.1 (34)*
G04*
G04 Layer_Color=65535*
%FSLAX44Y44*%
%MOMM*%
G71*
G04*
G04 #@! TF.SameCoordinates,72EB69C3-9BB9-4872-A384-3B2A4397978F*
G04*
G04*
G04 #@! TF.FilePolarity,Positive*
G04*
G01*
G75*
%ADD10C,0.2500*%
%ADD11C,0.1250*%
%ADD12C,0.1000*%
%ADD13C,0.2000*%
%ADD14C,0.2540*%
%ADD15C,0.1500*%
D10*
X749320Y944400D02*
G03*
X749320Y944400I-1250J0D01*
G01*
X1285900Y867750D02*
G03*
X1285900Y867750I-1250J0D01*
G01*
X931096Y650611D02*
G03*
X931096Y650611I-1250J0D01*
G01*
X899196Y805483D02*
G03*
X899196Y805483I-1250J0D01*
G01*
X1079407Y981656D02*
G03*
X1079407Y981656I-1250J0D01*
G01*
X673375Y832445D02*
G03*
X673375Y832445I-1250J0D01*
G01*
X904691Y794680D02*
G03*
X904691Y794680I-1250J0D01*
G01*
X745520Y816644D02*
G03*
X745520Y816644I-1250J0D01*
G01*
D11*
X1067340Y907837D02*
G03*
X1067340Y907837I-620J0D01*
G01*
D12*
X640125Y768307D02*
G03*
X640125Y767307I0J-500D01*
G01*
D02*
G03*
X640125Y768307I0J500D01*
G01*
D13*
X724570Y944700D02*
Y1010700D01*
X722070D02*
X724570D01*
X722070Y944700D02*
X724570D01*
X1360800Y674500D02*
Y855500D01*
X1104800Y674500D02*
X1112050D01*
X1293650D02*
X1360800D01*
X1104800Y830400D02*
Y855500D01*
Y674500D02*
Y699600D01*
Y855500D02*
X1112050D01*
X1293650D02*
X1360800D01*
X842446Y705561D02*
X905346D01*
X842446Y640561D02*
X905346D01*
X881446Y809883D02*
X889596D01*
X881446D02*
Y816484D01*
Y839083D02*
X889596D01*
X881446Y832484D02*
Y839083D01*
X990757Y1036606D02*
X1053657D01*
X990757Y971606D02*
X1053657D01*
X1164209Y660465D02*
X1167209D01*
X1164209Y647965D02*
X1167209D01*
X1168249Y650405D02*
Y658025D01*
X1163169Y654215D02*
X1168249Y658025D01*
X1163169Y654215D02*
X1168249Y650405D01*
X1163169D02*
Y658025D01*
X648125Y732307D02*
Y752307D01*
X632125Y732307D02*
Y752307D01*
X994464Y814733D02*
Y816233D01*
X979264Y830683D02*
X987114D01*
X979264Y800283D02*
Y806733D01*
Y824233D02*
Y830683D01*
Y800283D02*
X987114D01*
X739820Y658257D02*
X744900D01*
X668700Y637937D02*
Y658257D01*
X673780D01*
X744900Y637937D02*
Y658257D01*
X1038178Y787391D02*
Y793511D01*
X1025178Y805051D02*
X1031905D01*
X1025178Y775851D02*
Y784011D01*
Y796891D02*
Y805051D01*
Y775851D02*
X1031905D01*
X634500Y683577D02*
Y694576D01*
X646537Y683638D02*
Y694638D01*
X1019378Y635590D02*
Y762590D01*
X993978D02*
X1019378D01*
X993978Y635590D02*
X1019378D01*
X993978D02*
Y762590D01*
X828785Y869082D02*
X830285D01*
X844735Y876432D02*
Y884282D01*
X814335D02*
X820785D01*
X838285D02*
X844735D01*
X814335Y876432D02*
Y884282D01*
X666125Y812445D02*
Y835945D01*
Y871945D02*
Y895445D01*
X614125Y812445D02*
Y895445D01*
X622125D01*
X658125D02*
X666125D01*
X658125Y812445D02*
X666125D01*
X614125D02*
X622125D01*
X911791Y790280D02*
X919941D01*
Y783680D02*
Y790280D01*
X911791Y761080D02*
X919941D01*
Y767680D01*
X840672Y949104D02*
X843672D01*
X840672Y961604D02*
X843672D01*
X839632Y951544D02*
Y959164D01*
Y951544D02*
X844712Y955354D01*
X839632Y959164D02*
X844712Y955354D01*
Y951544D02*
Y959164D01*
X720270Y793261D02*
X749270D01*
X720270D02*
Y794319D01*
X749270D01*
Y793261D02*
Y794319D01*
X760419Y749109D02*
X763419D01*
X760419Y761609D02*
X763419D01*
X759379Y751549D02*
Y759169D01*
Y751549D02*
X764459Y755359D01*
X759379Y759169D02*
X764459Y755359D01*
Y751549D02*
Y759169D01*
X827268Y931093D02*
Y940090D01*
X831766D01*
X833266Y938591D01*
Y935592D01*
X831766Y934092D01*
X827268D01*
X840763Y940090D02*
X837764D01*
X836265Y938591D01*
Y932593D01*
X837764Y931093D01*
X840763D01*
X842263Y932593D01*
Y938591D01*
X840763Y940090D01*
X845262D02*
Y931093D01*
X848261Y934092D01*
X851260Y931093D01*
Y940090D01*
X860257D02*
X854259D01*
Y931093D01*
X860257D01*
X854259Y935592D02*
X857258D01*
X863256Y931093D02*
Y940090D01*
X867754D01*
X869254Y938591D01*
Y935592D01*
X867754Y934092D01*
X863256D01*
X866255D02*
X869254Y931093D01*
X885749Y940090D02*
X882750D01*
X881250Y938591D01*
Y932593D01*
X882750Y931093D01*
X885749D01*
X887248Y932593D01*
Y938591D01*
X885749Y940090D01*
X890247Y931093D02*
Y940090D01*
X896245Y931093D01*
Y940090D01*
X1090537Y1034310D02*
X1084539D01*
Y1025313D01*
X1090537D01*
X1084539Y1029811D02*
X1087538D01*
X1099534Y1032810D02*
X1098035Y1034310D01*
X1095036D01*
X1093536Y1032810D01*
Y1031311D01*
X1095036Y1029811D01*
X1098035D01*
X1099534Y1028312D01*
Y1026812D01*
X1098035Y1025313D01*
X1095036D01*
X1093536Y1026812D01*
X1102533Y1025313D02*
Y1034310D01*
X1107032D01*
X1108531Y1032810D01*
Y1029811D01*
X1107032Y1028312D01*
X1102533D01*
X1120528Y1025313D02*
Y1034310D01*
X1125026D01*
X1126526Y1032810D01*
Y1029811D01*
X1125026Y1028312D01*
X1120528D01*
X1123527D02*
X1126526Y1025313D01*
X1135523Y1034310D02*
X1129525D01*
Y1025313D01*
X1135523D01*
X1129525Y1029811D02*
X1132524D01*
X1144520Y1032810D02*
X1143020Y1034310D01*
X1140021D01*
X1138522Y1032810D01*
Y1031311D01*
X1140021Y1029811D01*
X1143020D01*
X1144520Y1028312D01*
Y1026812D01*
X1143020Y1025313D01*
X1140021D01*
X1138522Y1026812D01*
X1153517Y1034310D02*
X1147519D01*
Y1025313D01*
X1153517D01*
X1147519Y1029811D02*
X1150518D01*
X1156516Y1034310D02*
X1162514D01*
X1159515D01*
Y1025313D01*
X817438Y620321D02*
Y629318D01*
X821937D01*
X823436Y627819D01*
Y624820D01*
X821937Y623320D01*
X817438D01*
X830934Y629318D02*
X827935D01*
X826435Y627819D01*
Y621820D01*
X827935Y620321D01*
X830934D01*
X832433Y621820D01*
Y627819D01*
X830934Y629318D01*
X835432D02*
Y620321D01*
X838431Y623320D01*
X841431Y620321D01*
Y629318D01*
X850428D02*
X844429D01*
Y620321D01*
X850428D01*
X844429Y624820D02*
X847429D01*
X853427Y620321D02*
Y629318D01*
X857925D01*
X859425Y627819D01*
Y624820D01*
X857925Y623320D01*
X853427D01*
X856426D02*
X859425Y620321D01*
X877419Y627819D02*
X875919Y629318D01*
X872920D01*
X871421Y627819D01*
Y626319D01*
X872920Y624820D01*
X875919D01*
X877419Y623320D01*
Y621820D01*
X875919Y620321D01*
X872920D01*
X871421Y621820D01*
X880418Y629318D02*
Y620321D01*
X883417Y623320D01*
X886416Y620321D01*
Y629318D01*
X889415D02*
X892414D01*
X890914D01*
Y620321D01*
X889415D01*
X892414D01*
X896913Y629318D02*
X902911D01*
X899911D01*
Y620321D01*
X911908Y627819D02*
X910408Y629318D01*
X907409D01*
X905910Y627819D01*
Y621820D01*
X907409Y620321D01*
X910408D01*
X911908Y621820D01*
X914907Y629318D02*
Y620321D01*
Y624820D01*
X920905D01*
Y629318D01*
Y620321D01*
X1146659Y650028D02*
Y658025D01*
Y655359D01*
X1141327Y650028D01*
X1145326Y654027D01*
X1141327Y658025D01*
X861222Y959541D02*
Y951544D01*
Y954210D01*
X866554Y959541D01*
X862555Y955543D01*
X866554Y951544D01*
X780969Y759547D02*
Y751549D01*
Y754215D01*
X786301Y759547D01*
X782302Y755548D01*
X786301Y751549D01*
X736341Y831667D02*
Y824169D01*
X737840Y822670D01*
X740839D01*
X742339Y824169D01*
Y831667D01*
X745338Y830168D02*
X746837Y831667D01*
X749836D01*
X751336Y830168D01*
Y828668D01*
X749836Y827169D01*
X748337D01*
X749836D01*
X751336Y825669D01*
Y824169D01*
X749836Y822670D01*
X746837D01*
X745338Y824169D01*
X650001Y937600D02*
Y930103D01*
X651500Y928603D01*
X654499D01*
X655999Y930103D01*
Y937600D01*
X664996Y928603D02*
X658998D01*
X664996Y934601D01*
Y936101D01*
X663496Y937600D01*
X660497D01*
X658998Y936101D01*
X1074246Y960206D02*
Y952708D01*
X1075745Y951208D01*
X1078745D01*
X1080244Y952708D01*
Y960206D01*
X1083243Y951208D02*
X1086242D01*
X1084743D01*
Y960206D01*
X1083243Y958706D01*
X833439Y719916D02*
X831940Y721416D01*
X828941D01*
X827441Y719916D01*
Y718417D01*
X828941Y716917D01*
X831940D01*
X833439Y715418D01*
Y713918D01*
X831940Y712419D01*
X828941D01*
X827441Y713918D01*
X836438Y721416D02*
Y712419D01*
X839437Y715418D01*
X842436Y712419D01*
Y721416D01*
X851433Y712419D02*
X845435D01*
X851433Y718417D01*
Y719916D01*
X849934Y721416D01*
X846935D01*
X845435Y719916D01*
X1037709Y965251D02*
X1036209Y966751D01*
X1033210D01*
X1031711Y965251D01*
Y963752D01*
X1033210Y962252D01*
X1036209D01*
X1037709Y960753D01*
Y959253D01*
X1036209Y957754D01*
X1033210D01*
X1031711Y959253D01*
X1040708Y966751D02*
Y957754D01*
X1043707Y960753D01*
X1046706Y957754D01*
Y966751D01*
X1049705Y957754D02*
X1052704D01*
X1051205D01*
Y966751D01*
X1049705Y965251D01*
X874857Y969940D02*
Y978937D01*
X879356D01*
X880856Y977438D01*
Y974439D01*
X879356Y972939D01*
X874857D01*
X877857D02*
X880856Y969940D01*
X883855D02*
X886854D01*
X885354D01*
Y978937D01*
X883855Y977438D01*
X891352Y978937D02*
X897350D01*
Y977438D01*
X891352Y971440D01*
Y969940D01*
X849345Y883882D02*
Y892879D01*
X853843D01*
X855343Y891380D01*
Y888381D01*
X853843Y886881D01*
X849345D01*
X852344D02*
X855343Y883882D01*
X858342D02*
X861341D01*
X859841D01*
Y892879D01*
X858342Y891380D01*
X871837Y892879D02*
X865839D01*
Y888381D01*
X868838Y889880D01*
X870338D01*
X871837Y888381D01*
Y885382D01*
X870338Y883882D01*
X867339D01*
X865839Y885382D01*
X800909Y752331D02*
Y761329D01*
X805407D01*
X806907Y759829D01*
Y756830D01*
X805407Y755331D01*
X800909D01*
X803908D02*
X806907Y752331D01*
X809906D02*
X812905D01*
X811405D01*
Y761329D01*
X809906Y759829D01*
X821902Y752331D02*
Y761329D01*
X817403Y756830D01*
X823402D01*
X777064Y779169D02*
Y788166D01*
X781563D01*
X783063Y786666D01*
Y783668D01*
X781563Y782168D01*
X777064D01*
X780063D02*
X783063Y779169D01*
X786061D02*
X789061D01*
X787561D01*
Y788166D01*
X786061Y786666D01*
X793559D02*
X795059Y788166D01*
X798058D01*
X799557Y786666D01*
Y785167D01*
X798058Y783668D01*
X796558D01*
X798058D01*
X799557Y782168D01*
Y780668D01*
X798058Y779169D01*
X795059D01*
X793559Y780668D01*
X824460Y825747D02*
Y834744D01*
X828958D01*
X830458Y833244D01*
Y830245D01*
X828958Y828746D01*
X824460D01*
X827459D02*
X830458Y825747D01*
X833457D02*
X836456D01*
X834956D01*
Y834744D01*
X833457Y833244D01*
X846952Y825747D02*
X840954D01*
X846952Y831745D01*
Y833244D01*
X845453Y834744D01*
X842454D01*
X840954Y833244D01*
X896086Y858602D02*
Y867599D01*
X900584D01*
X902084Y866100D01*
Y863101D01*
X900584Y861601D01*
X896086D01*
X899085D02*
X902084Y858602D01*
X905083D02*
X908082D01*
X906582D01*
Y867599D01*
X905083Y866100D01*
X912580Y858602D02*
X915579D01*
X914080D01*
Y867599D01*
X912580Y866100D01*
X1078026Y649905D02*
Y658903D01*
X1082524D01*
X1084024Y657403D01*
Y654404D01*
X1082524Y652905D01*
X1078026D01*
X1081025D02*
X1084024Y649905D01*
X1087023D02*
X1090022D01*
X1088522D01*
Y658903D01*
X1087023Y657403D01*
X1094520D02*
X1096020Y658903D01*
X1099019D01*
X1100519Y657403D01*
Y651405D01*
X1099019Y649905D01*
X1096020D01*
X1094520Y651405D01*
Y657403D01*
X1033073Y733623D02*
Y742620D01*
X1037571D01*
X1039071Y741120D01*
Y738121D01*
X1037571Y736622D01*
X1033073D01*
X1036072D02*
X1039071Y733623D01*
X1042070Y735122D02*
X1043569Y733623D01*
X1046569D01*
X1048068Y735122D01*
Y741120D01*
X1046569Y742620D01*
X1043569D01*
X1042070Y741120D01*
Y739621D01*
X1043569Y738121D01*
X1048068D01*
X1146579Y895970D02*
Y904967D01*
X1151077D01*
X1152577Y903467D01*
Y900468D01*
X1151077Y898969D01*
X1146579D01*
X1149578D02*
X1152577Y895970D01*
X1155576Y903467D02*
X1157075Y904967D01*
X1160074D01*
X1161574Y903467D01*
Y901968D01*
X1160074Y900468D01*
X1161574Y898969D01*
Y897469D01*
X1160074Y895970D01*
X1157075D01*
X1155576Y897469D01*
Y898969D01*
X1157075Y900468D01*
X1155576Y901968D01*
Y903467D01*
X1157075Y900468D02*
X1160074D01*
X703945Y703366D02*
Y712363D01*
X708444D01*
X709943Y710863D01*
Y707864D01*
X708444Y706365D01*
X703945D01*
X706944D02*
X709943Y703366D01*
X712942Y712363D02*
X718941D01*
Y710863D01*
X712942Y704865D01*
Y703366D01*
X1046261Y851068D02*
Y860065D01*
X1050760D01*
X1052259Y858566D01*
Y855567D01*
X1050760Y854067D01*
X1046261D01*
X1049260D02*
X1052259Y851068D01*
X1061256Y860065D02*
X1058257Y858566D01*
X1055258Y855567D01*
Y852568D01*
X1056758Y851068D01*
X1059757D01*
X1061256Y852568D01*
Y854067D01*
X1059757Y855567D01*
X1055258D01*
X1069463Y808768D02*
Y817765D01*
X1073961D01*
X1075461Y816265D01*
Y813266D01*
X1073961Y811767D01*
X1069463D01*
X1072462D02*
X1075461Y808768D01*
X1084458Y817765D02*
X1078460D01*
Y813266D01*
X1081459Y814766D01*
X1082958D01*
X1084458Y813266D01*
Y810267D01*
X1082958Y808768D01*
X1079959D01*
X1078460Y810267D01*
X1062367Y768193D02*
Y777190D01*
X1066865D01*
X1068365Y775691D01*
Y772692D01*
X1066865Y771192D01*
X1062367D01*
X1065366D02*
X1068365Y768193D01*
X1075862D02*
Y777190D01*
X1071364Y772692D01*
X1077362D01*
X1032002Y828844D02*
Y837841D01*
X1036500D01*
X1038000Y836342D01*
Y833343D01*
X1036500Y831843D01*
X1032002D01*
X1035001D02*
X1038000Y828844D01*
X1040999Y836342D02*
X1042498Y837841D01*
X1045497D01*
X1046997Y836342D01*
Y834843D01*
X1045497Y833343D01*
X1043998D01*
X1045497D01*
X1046997Y831843D01*
Y830344D01*
X1045497Y828844D01*
X1042498D01*
X1040999Y830344D01*
X1201913Y991576D02*
Y1000573D01*
X1206411D01*
X1207911Y999073D01*
Y996074D01*
X1206411Y994575D01*
X1201913D01*
X1204911D02*
X1207911Y991576D01*
X1216908D02*
X1210910D01*
X1216908Y997574D01*
Y999073D01*
X1215408Y1000573D01*
X1212409D01*
X1210910Y999073D01*
X973270Y717380D02*
Y726377D01*
X977768D01*
X979268Y724878D01*
Y721879D01*
X977768Y720379D01*
X973270D01*
X976269D02*
X979268Y717380D01*
X982267D02*
X985266D01*
X983766D01*
Y726377D01*
X982267Y724878D01*
X881875Y796710D02*
Y802708D01*
X880375Y804208D01*
X877376D01*
X875877Y802708D01*
Y796710D01*
X877376Y795210D01*
X880375D01*
X878876Y798209D02*
X881875Y795210D01*
X880375D02*
X881875Y796710D01*
X890872Y804208D02*
X884874D01*
Y799709D01*
X887873Y801208D01*
X889372D01*
X890872Y799709D01*
Y796710D01*
X889372Y795210D01*
X886373D01*
X884874Y796710D01*
X916918Y798056D02*
Y804054D01*
X915419Y805553D01*
X912420D01*
X910920Y804054D01*
Y798056D01*
X912420Y796556D01*
X915419D01*
X913919Y799555D02*
X916918Y796556D01*
X915419D02*
X916918Y798056D01*
X924416Y796556D02*
Y805553D01*
X919917Y801055D01*
X925915D01*
X806297Y883455D02*
X800299D01*
X798800Y881955D01*
Y878956D01*
X800299Y877457D01*
X806297D01*
X807797Y878956D01*
Y881955D01*
X804798Y880456D02*
X807797Y883455D01*
Y881955D02*
X806297Y883455D01*
X800299Y886454D02*
X798800Y887953D01*
Y890952D01*
X800299Y892452D01*
X801798D01*
X803298Y890952D01*
Y889453D01*
Y890952D01*
X804798Y892452D01*
X806297D01*
X807797Y890952D01*
Y887953D01*
X806297Y886454D01*
X1042346Y811723D02*
Y817721D01*
X1040846Y819220D01*
X1037848D01*
X1036348Y817721D01*
Y811723D01*
X1037848Y810223D01*
X1040846D01*
X1039347Y813222D02*
X1042346Y810223D01*
X1040846D02*
X1042346Y811723D01*
X1051343Y810223D02*
X1045345D01*
X1051343Y816221D01*
Y817721D01*
X1049844Y819220D01*
X1046844D01*
X1045345Y817721D01*
X998953Y788045D02*
Y794043D01*
X997454Y795543D01*
X994455D01*
X992955Y794043D01*
Y788045D01*
X994455Y786546D01*
X997454D01*
X995954Y789545D02*
X998953Y786546D01*
X997454D02*
X998953Y788045D01*
X1001953Y786546D02*
X1004951D01*
X1003452D01*
Y795543D01*
X1001953Y794043D01*
X616427Y901257D02*
Y910254D01*
X620926D01*
X622425Y908754D01*
Y905755D01*
X620926Y904256D01*
X616427D01*
X625425Y901257D02*
X628424D01*
X626924D01*
Y910254D01*
X625425Y908754D01*
X1074754Y830756D02*
Y839753D01*
X1077753Y836754D01*
X1080752Y839753D01*
Y830756D01*
X1083751Y839753D02*
Y830756D01*
X1088249D01*
X1089749Y832255D01*
Y838253D01*
X1088249Y839753D01*
X1083751D01*
X1092748Y830756D02*
X1095747D01*
X1094247D01*
Y839753D01*
X1092748Y838253D01*
X783396Y747208D02*
Y738211D01*
X789394D01*
X798391Y747208D02*
X792393D01*
Y738211D01*
X798391D01*
X792393Y742709D02*
X795392D01*
X801390Y747208D02*
Y738211D01*
X805888D01*
X807388Y739710D01*
Y745708D01*
X805888Y747208D01*
X801390D01*
X810387Y745708D02*
X811886Y747208D01*
X814885D01*
X816385Y745708D01*
Y744209D01*
X814885Y742709D01*
X813386D01*
X814885D01*
X816385Y741210D01*
Y739710D01*
X814885Y738211D01*
X811886D01*
X810387Y739710D01*
X824777Y978757D02*
Y969760D01*
X830776D01*
X839773Y978757D02*
X833774D01*
Y969760D01*
X839773D01*
X833774Y974259D02*
X836774D01*
X842772Y978757D02*
Y969760D01*
X847270D01*
X848770Y971260D01*
Y977258D01*
X847270Y978757D01*
X842772D01*
X857767Y969760D02*
X851769D01*
X857767Y975758D01*
Y977258D01*
X856267Y978757D01*
X853268D01*
X851769Y977258D01*
X1189749Y658344D02*
Y649347D01*
X1195747D01*
X1204744Y658344D02*
X1198746D01*
Y649347D01*
X1204744D01*
X1198746Y653846D02*
X1201745D01*
X1207743Y658344D02*
Y649347D01*
X1212241D01*
X1213741Y650846D01*
Y656845D01*
X1212241Y658344D01*
X1207743D01*
X1216740Y649347D02*
X1219739D01*
X1218239D01*
Y658344D01*
X1216740Y656845D01*
X973673Y748035D02*
Y739037D01*
Y742037D01*
X979671Y748035D01*
X975173Y743536D01*
X979671Y739037D01*
X982670D02*
X985669D01*
X984170D01*
Y748035D01*
X982670Y746535D01*
X633162Y672804D02*
Y663807D01*
X637661D01*
X639160Y665306D01*
Y671304D01*
X637661Y672804D01*
X633162D01*
X648158Y663807D02*
X642160D01*
X648158Y669805D01*
Y671304D01*
X646658Y672804D01*
X643659D01*
X642160Y671304D01*
X623555Y781994D02*
Y772997D01*
X628054D01*
X629553Y774497D01*
Y780495D01*
X628054Y781994D01*
X623555D01*
X632552Y772997D02*
X635551D01*
X634052D01*
Y781994D01*
X632552Y780495D01*
X733433Y673176D02*
X731934Y674676D01*
X728935D01*
X727435Y673176D01*
Y667178D01*
X728935Y665678D01*
X731934D01*
X733433Y667178D01*
X736432Y665678D02*
Y674676D01*
X742430Y665678D01*
Y674676D01*
X745430Y665678D02*
X748428D01*
X746929D01*
Y674676D01*
X745430Y673176D01*
X848328Y777501D02*
X846829Y779000D01*
X843830D01*
X842330Y777501D01*
Y771503D01*
X843830Y770003D01*
X846829D01*
X848328Y771503D01*
X851327Y770003D02*
X854326D01*
X852827D01*
Y779000D01*
X851327Y777501D01*
X858825D02*
X860324Y779000D01*
X863323D01*
X864823Y777501D01*
Y776001D01*
X863323Y774502D01*
X861824D01*
X863323D01*
X864823Y773002D01*
Y771503D01*
X863323Y770003D01*
X860324D01*
X858825Y771503D01*
X734522Y857721D02*
X733023Y859221D01*
X730024D01*
X728524Y857721D01*
Y851723D01*
X730024Y850224D01*
X733023D01*
X734522Y851723D01*
X737521Y850224D02*
X740520D01*
X739021D01*
Y859221D01*
X737521Y857721D01*
X751017Y850224D02*
X745019D01*
X751017Y856222D01*
Y857721D01*
X749517Y859221D01*
X746518D01*
X745019Y857721D01*
X749559Y934456D02*
X748060Y935955D01*
X745061D01*
X743561Y934456D01*
Y928458D01*
X745061Y926958D01*
X748060D01*
X749559Y928458D01*
X752559Y926958D02*
X755557D01*
X754058D01*
Y935955D01*
X752559Y934456D01*
X760056Y926958D02*
X763055D01*
X761556D01*
Y935955D01*
X760056Y934456D01*
X706258Y746321D02*
X704758Y747820D01*
X701759D01*
X700260Y746321D01*
Y740323D01*
X701759Y738823D01*
X704758D01*
X706258Y740323D01*
X709257Y738823D02*
X712256D01*
X710756D01*
Y747820D01*
X709257Y746321D01*
X716754D02*
X718254Y747820D01*
X721253D01*
X722752Y746321D01*
Y740323D01*
X721253Y738823D01*
X718254D01*
X716754Y740323D01*
Y746321D01*
X793438Y1017065D02*
X791938Y1018565D01*
X788939D01*
X787440Y1017065D01*
Y1011067D01*
X788939Y1009567D01*
X791938D01*
X793438Y1011067D01*
X796437D02*
X797936Y1009567D01*
X800936D01*
X802435Y1011067D01*
Y1017065D01*
X800936Y1018565D01*
X797936D01*
X796437Y1017065D01*
Y1015566D01*
X797936Y1014066D01*
X802435D01*
X1005784Y925591D02*
X1004285Y927090D01*
X1001286D01*
X999786Y925591D01*
Y919593D01*
X1001286Y918093D01*
X1004285D01*
X1005784Y919593D01*
X1008783Y927090D02*
X1014781D01*
Y925591D01*
X1008783Y919593D01*
Y918093D01*
X1005360Y907052D02*
X1003860Y908552D01*
X1000861D01*
X999362Y907052D01*
Y901054D01*
X1000861Y899555D01*
X1003860D01*
X1005360Y901054D01*
X1014357Y908552D02*
X1011358Y907052D01*
X1008359Y904053D01*
Y901054D01*
X1009858Y899555D01*
X1012857D01*
X1014357Y901054D01*
Y902554D01*
X1012857Y904053D01*
X1008359D01*
X1005360Y888373D02*
X1003860Y889872D01*
X1000861D01*
X999362Y888373D01*
Y882375D01*
X1000861Y880875D01*
X1003860D01*
X1005360Y882375D01*
X1014357Y889872D02*
X1008359D01*
Y885374D01*
X1011358Y886873D01*
X1012857D01*
X1014357Y885374D01*
Y882375D01*
X1012857Y880875D01*
X1009858D01*
X1008359Y882375D01*
X1006634Y945544D02*
X1005134Y947044D01*
X1002135D01*
X1000635Y945544D01*
Y939546D01*
X1002135Y938046D01*
X1005134D01*
X1006634Y939546D01*
X1014131Y938046D02*
Y947044D01*
X1009632Y942545D01*
X1015631D01*
X1256174Y966353D02*
X1254675Y967852D01*
X1251676D01*
X1250176Y966353D01*
Y960355D01*
X1251676Y958855D01*
X1254675D01*
X1256174Y960355D01*
X1259173Y966353D02*
X1260673Y967852D01*
X1263672D01*
X1265172Y966353D01*
Y964853D01*
X1263672Y963354D01*
X1262172D01*
X1263672D01*
X1265172Y961854D01*
Y960355D01*
X1263672Y958855D01*
X1260673D01*
X1259173Y960355D01*
X1287871Y885880D02*
X1286372Y887380D01*
X1283373D01*
X1281873Y885880D01*
Y879882D01*
X1283373Y878383D01*
X1286372D01*
X1287871Y879882D01*
X1296868Y878383D02*
X1290870D01*
X1296868Y884381D01*
Y885880D01*
X1295369Y887380D01*
X1292370D01*
X1290870Y885880D01*
X1262087Y935161D02*
X1260587Y936660D01*
X1257588D01*
X1256089Y935161D01*
Y929163D01*
X1257588Y927663D01*
X1260587D01*
X1262087Y929163D01*
X1265086Y927663D02*
X1268085D01*
X1266585D01*
Y936660D01*
X1265086Y935161D01*
D14*
X1290000Y900000D02*
Y1040000D01*
Y900000D02*
X1300000D01*
Y870000D02*
Y900000D01*
Y660000D02*
Y870000D01*
X1290000Y660000D02*
X1300000D01*
X1290000Y610000D02*
Y660000D01*
X610000Y1040000D02*
X962340D01*
X610000Y920000D02*
Y1040000D01*
X962101Y921013D02*
X962225Y925764D01*
X798273Y921013D02*
X962101D01*
X757260Y880000D02*
X798273Y921013D01*
X960000Y610000D02*
X980000D01*
X780000D02*
X960000D01*
X830000Y744419D02*
Y807260D01*
X757260Y880000D02*
X830000Y807260D01*
X700000Y880000D02*
X757260D01*
X805581Y720000D02*
X830000Y744419D01*
X780000Y720000D02*
X805581D01*
X610000Y790000D02*
Y920000D01*
X700000Y880000D02*
Y920000D01*
X610000D02*
X700000D01*
X610000Y610000D02*
Y790000D01*
Y610000D02*
X780000D01*
Y720000D01*
X670000D02*
X780000D01*
X670000D02*
Y790000D01*
X610000D02*
X670000D01*
X962340Y1040000D02*
X1290000D01*
X962340Y610000D02*
X1290000D01*
X962340Y1040000D02*
X962340Y610000D01*
D15*
X735195Y741234D02*
X734196Y742234D01*
X732197D01*
X731197Y741234D01*
Y737235D01*
X732197Y736236D01*
X734196D01*
X735195Y737235D01*
X737195Y742234D02*
Y736236D01*
Y739234D01*
X741194D01*
Y742234D01*
Y736236D01*
X743193D02*
Y740234D01*
X745192Y742234D01*
X747192Y740234D01*
Y736236D01*
Y739234D01*
X743193D01*
X749191Y736236D02*
Y742234D01*
X752190D01*
X753190Y741234D01*
Y739234D01*
X752190Y738235D01*
X749191D01*
X751190D02*
X753190Y736236D01*
X759188Y741234D02*
X758188Y742234D01*
X756189D01*
X755189Y741234D01*
Y737235D01*
X756189Y736236D01*
X758188D01*
X759188Y737235D01*
Y739234D01*
X757188D01*
X761187Y742234D02*
X763186D01*
X762187D01*
Y736236D01*
X761187D01*
X763186D01*
X766186D02*
Y742234D01*
X770184Y736236D01*
Y742234D01*
X776182Y741234D02*
X775182Y742234D01*
X773183D01*
X772184Y741234D01*
Y737235D01*
X773183Y736236D01*
X775182D01*
X776182Y737235D01*
Y739234D01*
X774183D01*
M02*
