M48
;Layer_Color=9474304
;FILE_FORMAT=4:4
METRIC,LZ
;TYPE=PLATED
T1F00S00C0.3000
T2F00S00C0.8500
T3F00S00C1.0000
T4F00S00C1.5000
%
T01
X01283926Y00666163
X01229132Y0074591
X01044429Y00723392
X00978123Y00678156
X00932101Y00775273
X009Y0076
X00846796Y00789636
X00820231Y0067231
X01102829Y00644448
X00719651Y00667849
X00640518Y00677385
X00698901Y00761212
X00734781Y00815281
X00766445Y00799688
X0079Y0087
X00771785Y00927435
X0077569Y01025244
X00682702Y00944544
X00691761Y00871278
X00714368Y00862262
X0080612Y00866783
X00858922Y00878004
X00895764Y00842432
X00947088Y00862624
X00984354Y00874927
X01021046Y00884927
X01020833Y00904277
X01020727Y00922671
X01021005Y00941668
X01060701Y00946414
X01057618Y00914082
X01092508Y00908146
X01041297Y00874169
X01049337Y00799864
X01096172Y00821908
X01075355Y01025096
X00968517Y01003158
X00902733Y00954185
X01239767Y00950741
X01254034Y0092074
X01253459Y00894081
X01280412Y00834018
X01192075Y00804251
T02
X0068255Y00654287
X0073105
T03
X01006678Y0064829
Y0067369
Y0069909
Y0072449
Y0074989
T04
X00671675Y00624287
X00741925
M30
