G04*
G04 #@! TF.GenerationSoftware,Altium Limited,Altium Designer,22.6.1 (34)*
G04*
G04 Layer_Physical_Order=2*
G04 Layer_Color=16711680*
%FSLAX44Y44*%
%MOMM*%
G71*
G04*
G04 #@! TF.SameCoordinates,A7F95BF2-09E6-4EF4-AC3E-D413731AB972*
G04*
G04*
G04 #@! TF.FilePolarity,Positive*
G04*
G01*
G75*
%ADD13C,0.2000*%
%ADD59C,0.3000*%
G04:AMPARAMS|DCode=61|XSize=1.25mm|YSize=1.05mm|CornerRadius=0.525mm|HoleSize=0mm|Usage=FLASHONLY|Rotation=270.000|XOffset=0mm|YOffset=0mm|HoleType=Round|Shape=RoundedRectangle|*
%AMROUNDEDRECTD61*
21,1,1.2500,0.0000,0,0,270.0*
21,1,0.2000,1.0500,0,0,270.0*
1,1,1.0500,0.0000,-0.1000*
1,1,1.0500,0.0000,0.1000*
1,1,1.0500,0.0000,0.1000*
1,1,1.0500,0.0000,-0.1000*
%
%ADD61ROUNDEDRECTD61*%
G04:AMPARAMS|DCode=62|XSize=2.1mm|YSize=1.9mm|CornerRadius=0.475mm|HoleSize=0mm|Usage=FLASHONLY|Rotation=270.000|XOffset=0mm|YOffset=0mm|HoleType=Round|Shape=RoundedRectangle|*
%AMROUNDEDRECTD62*
21,1,2.1000,0.9500,0,0,270.0*
21,1,1.1500,1.9000,0,0,270.0*
1,1,0.9500,-0.4750,-0.5750*
1,1,0.9500,-0.4750,0.5750*
1,1,0.9500,0.4750,0.5750*
1,1,0.9500,0.4750,-0.5750*
%
%ADD62ROUNDEDRECTD62*%
%ADD63C,1.7500*%
%ADD64C,0.7000*%
G36*
X1286666Y990000D02*
Y900000D01*
X1286920Y898724D01*
X1287643Y897643D01*
X1288724Y896920D01*
X1290000Y896666D01*
Y670349D01*
X1288730Y669901D01*
X1287347Y671284D01*
X1285196Y672175D01*
Y666163D01*
Y660152D01*
X1285513Y660283D01*
X1286666Y659386D01*
Y613334D01*
X752791D01*
X752165Y614604D01*
X752571Y615133D01*
X753251Y616775D01*
X753483Y618537D01*
Y630037D01*
X753251Y631799D01*
X752571Y633441D01*
X751489Y634851D01*
X750079Y635933D01*
X748437Y636613D01*
X746675Y636845D01*
X737175D01*
X735413Y636613D01*
X733771Y635933D01*
X732361Y634851D01*
X731279Y633441D01*
X730598Y631799D01*
X730366Y630037D01*
Y618537D01*
X730598Y616775D01*
X731279Y615133D01*
X731684Y614604D01*
X731058Y613334D01*
X682541D01*
X681915Y614604D01*
X682321Y615133D01*
X683001Y616775D01*
X683233Y618537D01*
Y630037D01*
X683001Y631799D01*
X682321Y633441D01*
X681239Y634851D01*
X679829Y635933D01*
X678187Y636613D01*
X676425Y636845D01*
X666925D01*
X665163Y636613D01*
X663521Y635933D01*
X662111Y634851D01*
X661029Y633441D01*
X660348Y631799D01*
X660116Y630037D01*
Y618537D01*
X660348Y616775D01*
X661029Y615133D01*
X661434Y614604D01*
X660808Y613334D01*
X613334D01*
Y1036666D01*
X1286666D01*
Y990000D01*
D02*
G37*
%LPC*%
G36*
X776960Y1031256D02*
Y1026514D01*
X781701D01*
X780810Y1028665D01*
X779111Y1030365D01*
X776960Y1031256D01*
D02*
G37*
G36*
X774420D02*
X772269Y1030365D01*
X770569Y1028665D01*
X769678Y1026514D01*
X774420D01*
Y1031256D01*
D02*
G37*
G36*
X1076625Y1031107D02*
Y1026366D01*
X1081367D01*
X1080475Y1028517D01*
X1078776Y1030216D01*
X1076625Y1031107D01*
D02*
G37*
G36*
X1074085D02*
X1071934Y1030216D01*
X1070235Y1028517D01*
X1069343Y1026366D01*
X1074085D01*
Y1031107D01*
D02*
G37*
G36*
X781701Y1023974D02*
X776960D01*
Y1019232D01*
X779111Y1020124D01*
X780810Y1021823D01*
X781701Y1023974D01*
D02*
G37*
G36*
X774420D02*
X769678D01*
X770569Y1021823D01*
X772269Y1020124D01*
X774420Y1019232D01*
Y1023974D01*
D02*
G37*
G36*
X1081367Y1023826D02*
X1076625D01*
Y1019084D01*
X1078776Y1019975D01*
X1080475Y1021674D01*
X1081367Y1023826D01*
D02*
G37*
G36*
X1074085D02*
X1069343D01*
X1070235Y1021674D01*
X1071934Y1019975D01*
X1074085Y1019084D01*
Y1023826D01*
D02*
G37*
G36*
X969787Y1009169D02*
Y1004428D01*
X974528D01*
X973637Y1006579D01*
X971938Y1008278D01*
X969787Y1009169D01*
D02*
G37*
G36*
X967247D02*
X965095Y1008278D01*
X963396Y1006579D01*
X962505Y1004428D01*
X967247D01*
Y1009169D01*
D02*
G37*
G36*
X974528Y1001888D02*
X969787D01*
Y997146D01*
X971938Y998037D01*
X973637Y999736D01*
X974528Y1001888D01*
D02*
G37*
G36*
X967247D02*
X962505D01*
X963396Y999736D01*
X965095Y998037D01*
X967247Y997146D01*
Y1001888D01*
D02*
G37*
G36*
X904003Y960196D02*
Y955455D01*
X908745D01*
X907853Y957606D01*
X906154Y959305D01*
X904003Y960196D01*
D02*
G37*
G36*
X901463D02*
X899312Y959305D01*
X897613Y957606D01*
X896721Y955455D01*
X901463D01*
Y960196D01*
D02*
G37*
G36*
X1241037Y956752D02*
Y952010D01*
X1245779D01*
X1244887Y954162D01*
X1243188Y955861D01*
X1241037Y956752D01*
D02*
G37*
G36*
X1238497D02*
X1236346Y955861D01*
X1234646Y954162D01*
X1233755Y952010D01*
X1238497D01*
Y956752D01*
D02*
G37*
G36*
X908745Y952915D02*
X904003D01*
Y948173D01*
X906154Y949064D01*
X907853Y950763D01*
X908745Y952915D01*
D02*
G37*
G36*
X901463D02*
X896721D01*
X897613Y950763D01*
X899312Y949064D01*
X901463Y948173D01*
Y952915D01*
D02*
G37*
G36*
X1061971Y952426D02*
Y947684D01*
X1066713D01*
X1065822Y949836D01*
X1064122Y951535D01*
X1061971Y952426D01*
D02*
G37*
G36*
X1059431D02*
X1057280Y951535D01*
X1055581Y949836D01*
X1054689Y947684D01*
X1059431D01*
Y952426D01*
D02*
G37*
G36*
X683972Y950556D02*
Y945814D01*
X688714D01*
X687823Y947966D01*
X686124Y949665D01*
X683972Y950556D01*
D02*
G37*
G36*
X681432D02*
X679281Y949665D01*
X677582Y947966D01*
X676691Y945814D01*
X681432D01*
Y950556D01*
D02*
G37*
G36*
X1245779Y949471D02*
X1241037D01*
Y944729D01*
X1243188Y945620D01*
X1244887Y947319D01*
X1245779Y949471D01*
D02*
G37*
G36*
X1238497D02*
X1233755D01*
X1234646Y947319D01*
X1236346Y945620D01*
X1238497Y944729D01*
Y949471D01*
D02*
G37*
G36*
X1022275Y947680D02*
Y942938D01*
X1027017D01*
X1026126Y945089D01*
X1024427Y946788D01*
X1022275Y947680D01*
D02*
G37*
G36*
X1019735D02*
X1017584Y946788D01*
X1015885Y945089D01*
X1014994Y942938D01*
X1019735D01*
Y947680D01*
D02*
G37*
G36*
X1066713Y945144D02*
X1061971D01*
Y940403D01*
X1064122Y941294D01*
X1065822Y942993D01*
X1066713Y945144D01*
D02*
G37*
G36*
X1059431D02*
X1054689D01*
X1055581Y942993D01*
X1057280Y941294D01*
X1059431Y940403D01*
Y945144D01*
D02*
G37*
G36*
X688714Y943274D02*
X683972D01*
Y938533D01*
X686124Y939424D01*
X687823Y941123D01*
X688714Y943274D01*
D02*
G37*
G36*
X681432D02*
X676691D01*
X677582Y941123D01*
X679281Y939424D01*
X681432Y938533D01*
Y943274D01*
D02*
G37*
G36*
X1027017Y940398D02*
X1022275D01*
Y935656D01*
X1024427Y936547D01*
X1026126Y938247D01*
X1027017Y940398D01*
D02*
G37*
G36*
X1019735D02*
X1014994D01*
X1015885Y938247D01*
X1017584Y936547D01*
X1019735Y935656D01*
Y940398D01*
D02*
G37*
G36*
X773055Y933447D02*
Y928705D01*
X777797D01*
X776906Y930856D01*
X775207Y932555D01*
X773055Y933447D01*
D02*
G37*
G36*
X770515D02*
X768364Y932555D01*
X766665Y930856D01*
X765774Y928705D01*
X770515D01*
Y933447D01*
D02*
G37*
G36*
X1021997Y928682D02*
Y923941D01*
X1026739D01*
X1025847Y926092D01*
X1024148Y927791D01*
X1021997Y928682D01*
D02*
G37*
G36*
X1019457D02*
X1017306Y927791D01*
X1015607Y926092D01*
X1014715Y923941D01*
X1019457D01*
Y928682D01*
D02*
G37*
G36*
X1255304Y926752D02*
Y922010D01*
X1260046D01*
X1259155Y924162D01*
X1257456Y925861D01*
X1255304Y926752D01*
D02*
G37*
G36*
X1252764D02*
X1250613Y925861D01*
X1248914Y924162D01*
X1248023Y922010D01*
X1252764D01*
Y926752D01*
D02*
G37*
G36*
X777797Y926165D02*
X773055D01*
Y921423D01*
X775207Y922314D01*
X776906Y924014D01*
X777797Y926165D01*
D02*
G37*
G36*
X770515D02*
X765774D01*
X766665Y924014D01*
X768364Y922314D01*
X770515Y921423D01*
Y926165D01*
D02*
G37*
G36*
X1026739Y921401D02*
X1021997D01*
Y916659D01*
X1024148Y917550D01*
X1025847Y919249D01*
X1026739Y921401D01*
D02*
G37*
G36*
X1019457D02*
X1014715D01*
X1015607Y919249D01*
X1017306Y917550D01*
X1019457Y916659D01*
Y921401D01*
D02*
G37*
G36*
X1260046Y919470D02*
X1255304D01*
Y914729D01*
X1257456Y915620D01*
X1259155Y917319D01*
X1260046Y919470D01*
D02*
G37*
G36*
X1252764D02*
X1248023D01*
X1248914Y917319D01*
X1250613Y915620D01*
X1252764Y914729D01*
Y919470D01*
D02*
G37*
G36*
X1093778Y914157D02*
Y909416D01*
X1098519D01*
X1097628Y911567D01*
X1095929Y913266D01*
X1093778Y914157D01*
D02*
G37*
G36*
X1091238D02*
X1089086Y913266D01*
X1087387Y911567D01*
X1086496Y909416D01*
X1091238D01*
Y914157D01*
D02*
G37*
G36*
X1022103Y910289D02*
Y905547D01*
X1026845D01*
X1025954Y907699D01*
X1024255Y909398D01*
X1022103Y910289D01*
D02*
G37*
G36*
X1019563D02*
X1017412Y909398D01*
X1015713Y907699D01*
X1014822Y905547D01*
X1019563D01*
Y910289D01*
D02*
G37*
G36*
X1098519Y906876D02*
X1093778D01*
Y902134D01*
X1095929Y903025D01*
X1097628Y904725D01*
X1098519Y906876D01*
D02*
G37*
G36*
X1091238D02*
X1086496D01*
X1087387Y904725D01*
X1089086Y903025D01*
X1091238Y902134D01*
Y906876D01*
D02*
G37*
G36*
X1026845Y903007D02*
X1022103D01*
Y898266D01*
X1024255Y899157D01*
X1025954Y900856D01*
X1026845Y903007D01*
D02*
G37*
G36*
X1019563D02*
X1014822D01*
X1015713Y900856D01*
X1017412Y899157D01*
X1019563Y898266D01*
Y903007D01*
D02*
G37*
G36*
X1254729Y900092D02*
Y895351D01*
X1259471D01*
X1258579Y897502D01*
X1256880Y899201D01*
X1254729Y900092D01*
D02*
G37*
G36*
X1252189D02*
X1250038Y899201D01*
X1248338Y897502D01*
X1247447Y895351D01*
X1252189D01*
Y900092D01*
D02*
G37*
G36*
X1259471Y892811D02*
X1254729D01*
Y888069D01*
X1256880Y888960D01*
X1258579Y890659D01*
X1259471Y892811D01*
D02*
G37*
G36*
X1252189D02*
X1247447D01*
X1248338Y890659D01*
X1250038Y888960D01*
X1252189Y888069D01*
Y892811D01*
D02*
G37*
G36*
X1022316Y890938D02*
Y886197D01*
X1027057D01*
X1026166Y888348D01*
X1024467Y890047D01*
X1022316Y890938D01*
D02*
G37*
G36*
X1019776D02*
X1017625Y890047D01*
X1015925Y888348D01*
X1015034Y886197D01*
X1019776D01*
Y890938D01*
D02*
G37*
G36*
X1027057Y883657D02*
X1022316D01*
Y878915D01*
X1024467Y879806D01*
X1026166Y881505D01*
X1027057Y883657D01*
D02*
G37*
G36*
X1019776D02*
X1015034D01*
X1015925Y881505D01*
X1017625Y879806D01*
X1019776Y878915D01*
Y883657D01*
D02*
G37*
G36*
X693031Y877290D02*
Y872548D01*
X697773D01*
X696882Y874699D01*
X695183Y876398D01*
X693031Y877290D01*
D02*
G37*
G36*
X690491D02*
X688340Y876398D01*
X686641Y874699D01*
X685750Y872548D01*
X690491D01*
Y877290D01*
D02*
G37*
G36*
X1058712Y919582D02*
X1056524D01*
X1054503Y918745D01*
X1052956Y917198D01*
X1052118Y915176D01*
Y912988D01*
X1052956Y910967D01*
X1054503Y909419D01*
X1054559Y909396D01*
Y892060D01*
X1042169Y879669D01*
X1040203D01*
X1038182Y878831D01*
X1036635Y877284D01*
X1035797Y875263D01*
Y873075D01*
X1036635Y871053D01*
X1038182Y869506D01*
X1040203Y868669D01*
X1042391D01*
X1044413Y869506D01*
X1045960Y871053D01*
X1046797Y873075D01*
Y875263D01*
X1046685Y875534D01*
X1059781Y888630D01*
X1059781Y888630D01*
X1060444Y889622D01*
X1060677Y890793D01*
X1060677Y890793D01*
Y909396D01*
X1060734Y909419D01*
X1062281Y910967D01*
X1063118Y912988D01*
Y915176D01*
X1062281Y917198D01*
X1060734Y918745D01*
X1058712Y919582D01*
D02*
G37*
G36*
X697773Y870008D02*
X693031D01*
Y865266D01*
X695183Y866158D01*
X696882Y867857D01*
X697773Y870008D01*
D02*
G37*
G36*
X690491D02*
X685750D01*
X686641Y867857D01*
X688340Y866158D01*
X690491Y865266D01*
Y870008D01*
D02*
G37*
G36*
X715638Y868274D02*
Y863532D01*
X720379D01*
X719488Y865684D01*
X717789Y867383D01*
X715638Y868274D01*
D02*
G37*
G36*
X713098D02*
X710946Y867383D01*
X709247Y865684D01*
X708356Y863532D01*
X713098D01*
Y868274D01*
D02*
G37*
G36*
X900000Y913569D02*
X810000D01*
X808634Y913297D01*
X807477Y912523D01*
X787477Y892523D01*
X786703Y891366D01*
X786431Y890000D01*
Y874210D01*
X785337Y873115D01*
X784500Y871094D01*
Y868906D01*
X785337Y866885D01*
X786885Y865337D01*
X788906Y864500D01*
X791094D01*
X793115Y865337D01*
X794663Y866885D01*
X795500Y868906D01*
Y871094D01*
X794663Y873115D01*
X793569Y874210D01*
Y888522D01*
X811478Y906431D01*
X898522D01*
X941588Y863365D01*
Y861530D01*
X942426Y859508D01*
X943973Y857961D01*
X945994Y857124D01*
X948182D01*
X950204Y857961D01*
X951751Y859508D01*
X952588Y861530D01*
Y863718D01*
X951751Y865739D01*
X950204Y867287D01*
X948182Y868124D01*
X946923D01*
X902523Y912523D01*
X901366Y913297D01*
X900000Y913569D01*
D02*
G37*
G36*
X720379Y860992D02*
X715638D01*
Y856251D01*
X717789Y857142D01*
X719488Y858841D01*
X720379Y860992D01*
D02*
G37*
G36*
X713098D02*
X708356D01*
X709247Y858841D01*
X710946Y857142D01*
X713098Y856251D01*
Y860992D01*
D02*
G37*
G36*
X897034Y848444D02*
Y843702D01*
X901775D01*
X900884Y845854D01*
X899185Y847553D01*
X897034Y848444D01*
D02*
G37*
G36*
X894494D02*
X892342Y847553D01*
X890643Y845854D01*
X889752Y843702D01*
X894494D01*
Y848444D01*
D02*
G37*
G36*
X901775Y841162D02*
X897034D01*
Y836421D01*
X899185Y837312D01*
X900884Y839011D01*
X901775Y841162D01*
D02*
G37*
G36*
X894494D02*
X889752D01*
X890643Y839011D01*
X892342Y837312D01*
X894494Y836421D01*
Y841162D01*
D02*
G37*
G36*
X1281682Y840030D02*
Y835288D01*
X1286423D01*
X1285532Y837439D01*
X1283833Y839138D01*
X1281682Y840030D01*
D02*
G37*
G36*
X1279142D02*
X1276990Y839138D01*
X1275291Y837439D01*
X1274400Y835288D01*
X1279142D01*
Y840030D01*
D02*
G37*
G36*
X1286423Y832748D02*
X1281682D01*
Y828006D01*
X1283833Y828898D01*
X1285532Y830597D01*
X1286423Y832748D01*
D02*
G37*
G36*
X1279142D02*
X1274400D01*
X1275291Y830597D01*
X1276990Y828898D01*
X1279142Y828006D01*
Y832748D01*
D02*
G37*
G36*
X1097442Y827919D02*
Y823178D01*
X1102184D01*
X1101293Y825329D01*
X1099594Y827028D01*
X1097442Y827919D01*
D02*
G37*
G36*
X1094902D02*
X1092751Y827028D01*
X1091052Y825329D01*
X1090161Y823178D01*
X1094902D01*
Y827919D01*
D02*
G37*
G36*
X736051Y821292D02*
Y816551D01*
X740792D01*
X739901Y818702D01*
X738202Y820401D01*
X736051Y821292D01*
D02*
G37*
G36*
X733511D02*
X731359Y820401D01*
X729660Y818702D01*
X728769Y816551D01*
X733511D01*
Y821292D01*
D02*
G37*
G36*
X1102184Y820638D02*
X1097442D01*
Y815896D01*
X1099594Y816787D01*
X1101293Y818486D01*
X1102184Y820638D01*
D02*
G37*
G36*
X1094902D02*
X1090161D01*
X1091052Y818486D01*
X1092751Y816787D01*
X1094902Y815896D01*
Y820638D01*
D02*
G37*
G36*
X740792Y814011D02*
X736051D01*
Y809269D01*
X738202Y810160D01*
X739901Y811859D01*
X740792Y814011D01*
D02*
G37*
G36*
X733511D02*
X728769D01*
X729660Y811859D01*
X731359Y810160D01*
X733511Y809269D01*
Y814011D01*
D02*
G37*
G36*
X1193345Y810263D02*
Y805521D01*
X1198087D01*
X1197196Y807672D01*
X1195497Y809371D01*
X1193345Y810263D01*
D02*
G37*
G36*
X1190805D02*
X1188654Y809371D01*
X1186955Y807672D01*
X1186064Y805521D01*
X1190805D01*
Y810263D01*
D02*
G37*
G36*
X1050607Y805875D02*
Y801133D01*
X1055349D01*
X1054458Y803285D01*
X1052759Y804984D01*
X1050607Y805875D01*
D02*
G37*
G36*
X1048067D02*
X1045916Y804984D01*
X1044217Y803285D01*
X1043326Y801133D01*
X1048067D01*
Y805875D01*
D02*
G37*
G36*
X767715Y805700D02*
Y800958D01*
X772457D01*
X771566Y803110D01*
X769867Y804809D01*
X767715Y805700D01*
D02*
G37*
G36*
X765175D02*
X763024Y804809D01*
X761325Y803110D01*
X760434Y800958D01*
X765175D01*
Y805700D01*
D02*
G37*
G36*
X1198087Y802981D02*
X1193345D01*
Y798239D01*
X1195497Y799130D01*
X1197196Y800829D01*
X1198087Y802981D01*
D02*
G37*
G36*
X1190805D02*
X1186064D01*
X1186955Y800829D01*
X1188654Y799130D01*
X1190805Y798239D01*
Y802981D01*
D02*
G37*
G36*
X1055349Y798594D02*
X1050607D01*
Y793852D01*
X1052759Y794743D01*
X1054458Y796442D01*
X1055349Y798594D01*
D02*
G37*
G36*
X1048067D02*
X1043326D01*
X1044217Y796442D01*
X1045916Y794743D01*
X1048067Y793852D01*
Y798594D01*
D02*
G37*
G36*
X772457Y798418D02*
X767715D01*
Y793677D01*
X769867Y794568D01*
X771566Y796267D01*
X772457Y798418D01*
D02*
G37*
G36*
X765175D02*
X760434D01*
X761325Y796267D01*
X763024Y794568D01*
X765175Y793677D01*
Y798418D01*
D02*
G37*
G36*
X848066Y795648D02*
Y790906D01*
X852808D01*
X851917Y793057D01*
X850218Y794756D01*
X848066Y795648D01*
D02*
G37*
G36*
X845526D02*
X843375Y794756D01*
X841676Y793057D01*
X840785Y790906D01*
X845526D01*
Y795648D01*
D02*
G37*
G36*
X852808Y788366D02*
X848066D01*
Y783624D01*
X850218Y784516D01*
X851917Y786215D01*
X852808Y788366D01*
D02*
G37*
G36*
X845526D02*
X840785D01*
X841676Y786215D01*
X843375Y784516D01*
X845526Y783624D01*
Y788366D01*
D02*
G37*
G36*
X860016Y883504D02*
X857828D01*
X855806Y882666D01*
X854712Y881572D01*
X840527D01*
X840002Y881468D01*
X817236D01*
X815871Y881196D01*
X814713Y880423D01*
X806573Y872283D01*
X805026D01*
X803004Y871445D01*
X801457Y869898D01*
X800620Y867877D01*
Y865689D01*
X801457Y863667D01*
X803004Y862120D01*
X805026Y861283D01*
X807214D01*
X809235Y862120D01*
X810782Y863667D01*
X811620Y865689D01*
Y867236D01*
X818715Y874331D01*
X840422D01*
X840947Y874435D01*
X854712D01*
X855806Y873341D01*
X857828Y872504D01*
X860016D01*
X862037Y873341D01*
X863131Y874435D01*
X890518D01*
X928532Y836421D01*
Y779483D01*
X927438Y778389D01*
X926601Y776367D01*
Y774179D01*
X927438Y772158D01*
X928985Y770611D01*
X931006Y769773D01*
X933195D01*
X935216Y770611D01*
X936763Y772158D01*
X937600Y774179D01*
Y776367D01*
X936763Y778389D01*
X935669Y779483D01*
Y837899D01*
X935397Y839265D01*
X934624Y840423D01*
X894520Y880527D01*
X893362Y881301D01*
X891996Y881572D01*
X863131D01*
X862037Y882666D01*
X860016Y883504D01*
D02*
G37*
G36*
X700171Y767224D02*
Y762483D01*
X704912D01*
X704021Y764634D01*
X702322Y766333D01*
X700171Y767224D01*
D02*
G37*
G36*
X697630D02*
X695479Y766333D01*
X693780Y764634D01*
X692889Y762483D01*
X697630D01*
Y767224D01*
D02*
G37*
G36*
X901270Y766012D02*
Y761270D01*
X906012D01*
X905120Y763421D01*
X903421Y765120D01*
X901270Y766012D01*
D02*
G37*
G36*
X898730D02*
X896579Y765120D01*
X894880Y763421D01*
X893988Y761270D01*
X898730D01*
Y766012D01*
D02*
G37*
G36*
X704912Y759942D02*
X700171D01*
Y755201D01*
X702322Y756092D01*
X704021Y757791D01*
X704912Y759942D01*
D02*
G37*
G36*
X697630D02*
X692889D01*
X693780Y757791D01*
X695479Y756092D01*
X697630Y755201D01*
Y759942D01*
D02*
G37*
G36*
X906012Y758730D02*
X901270D01*
Y753988D01*
X903421Y754880D01*
X905120Y756579D01*
X906012Y758730D01*
D02*
G37*
G36*
X898730D02*
X893988D01*
X894880Y756579D01*
X896579Y754880D01*
X898730Y753988D01*
Y758730D01*
D02*
G37*
G36*
X1008164Y761180D02*
X1007948D01*
Y751160D01*
X1017968D01*
Y751376D01*
X1017199Y754248D01*
X1015712Y756822D01*
X1013610Y758924D01*
X1011036Y760410D01*
X1008164Y761180D01*
D02*
G37*
G36*
X1005408D02*
X1005192D01*
X1002320Y760410D01*
X999746Y758924D01*
X997644Y756822D01*
X996157Y754248D01*
X995388Y751376D01*
Y751160D01*
X1005408D01*
Y761180D01*
D02*
G37*
G36*
X1230402Y751921D02*
Y747180D01*
X1235144D01*
X1234253Y749331D01*
X1232554Y751030D01*
X1230402Y751921D01*
D02*
G37*
G36*
X1227862D02*
X1225711Y751030D01*
X1224012Y749331D01*
X1223121Y747180D01*
X1227862D01*
Y751921D01*
D02*
G37*
G36*
X1235144Y744640D02*
X1230402D01*
Y739898D01*
X1232554Y740789D01*
X1234253Y742488D01*
X1235144Y744640D01*
D02*
G37*
G36*
X1227862D02*
X1223121D01*
X1224012Y742488D01*
X1225711Y740789D01*
X1227862Y739898D01*
Y744640D01*
D02*
G37*
G36*
X1017968Y748620D02*
X1007948D01*
Y738600D01*
X1008164D01*
X1011036Y739369D01*
X1013610Y740855D01*
X1015712Y742958D01*
X1017199Y745532D01*
X1017968Y748403D01*
Y748620D01*
D02*
G37*
G36*
X1005408D02*
X995388D01*
Y748403D01*
X996157Y745532D01*
X997644Y742958D01*
X999746Y740855D01*
X1002320Y739369D01*
X1005192Y738600D01*
X1005408D01*
Y748620D01*
D02*
G37*
G36*
X1045699Y729404D02*
Y724662D01*
X1050440D01*
X1049549Y726814D01*
X1047850Y728513D01*
X1045699Y729404D01*
D02*
G37*
G36*
X1043159D02*
X1041007Y728513D01*
X1039308Y726814D01*
X1038417Y724662D01*
X1043159D01*
Y729404D01*
D02*
G37*
G36*
X1050440Y722122D02*
X1045699D01*
Y717381D01*
X1047850Y718272D01*
X1049549Y719971D01*
X1050440Y722122D01*
D02*
G37*
G36*
X1043159D02*
X1038417D01*
X1039308Y719971D01*
X1041007Y718272D01*
X1043159Y717381D01*
Y722122D01*
D02*
G37*
G36*
X1008093Y735240D02*
X1005263D01*
X1002529Y734507D01*
X1000077Y733092D01*
X998076Y731090D01*
X996661Y728639D01*
X995928Y725905D01*
Y723074D01*
X996661Y720340D01*
X998076Y717889D01*
X1000077Y715888D01*
X1002529Y714472D01*
X1005263Y713740D01*
X1008093D01*
X1010827Y714472D01*
X1013279Y715888D01*
X1015280Y717889D01*
X1016695Y720340D01*
X1017428Y723074D01*
Y725905D01*
X1016695Y728639D01*
X1015280Y731090D01*
X1013279Y733092D01*
X1010827Y734507D01*
X1008093Y735240D01*
D02*
G37*
G36*
Y709840D02*
X1005263D01*
X1002529Y709107D01*
X1000077Y707692D01*
X998076Y705690D01*
X996661Y703239D01*
X995928Y700505D01*
Y697674D01*
X996661Y694940D01*
X998076Y692489D01*
X1000077Y690488D01*
X1002529Y689072D01*
X1005263Y688340D01*
X1008093D01*
X1010827Y689072D01*
X1013279Y690488D01*
X1015280Y692489D01*
X1016695Y694940D01*
X1017428Y697674D01*
Y700505D01*
X1016695Y703239D01*
X1015280Y705690D01*
X1013279Y707692D01*
X1010827Y709107D01*
X1008093Y709840D01*
D02*
G37*
G36*
X641788Y683397D02*
Y678655D01*
X646530D01*
X645639Y680807D01*
X643940Y682506D01*
X641788Y683397D01*
D02*
G37*
G36*
X639248D02*
X637097Y682506D01*
X635398Y680807D01*
X634506Y678655D01*
X639248D01*
Y683397D01*
D02*
G37*
G36*
X821501Y678322D02*
Y673580D01*
X826243D01*
X825351Y675732D01*
X823652Y677431D01*
X821501Y678322D01*
D02*
G37*
G36*
X818961D02*
X816810Y677431D01*
X815110Y675732D01*
X814219Y673580D01*
X818961D01*
Y678322D01*
D02*
G37*
G36*
X985448Y880427D02*
X983260D01*
X981238Y879589D01*
X979691Y878042D01*
X978854Y876021D01*
Y874473D01*
X969505Y865125D01*
X968732Y863967D01*
X968460Y862601D01*
Y684249D01*
X968732Y682884D01*
X969505Y681726D01*
X972623Y678609D01*
Y677062D01*
X973460Y675040D01*
X975007Y673493D01*
X977029Y672656D01*
X979217D01*
X981238Y673493D01*
X982785Y675040D01*
X983623Y677062D01*
Y679250D01*
X982785Y681271D01*
X981238Y682818D01*
X979217Y683656D01*
X977669D01*
X975597Y685728D01*
Y861123D01*
X983901Y869427D01*
X985448D01*
X987469Y870264D01*
X989016Y871811D01*
X989854Y873833D01*
Y876021D01*
X989016Y878042D01*
X987469Y879589D01*
X985448Y880427D01*
D02*
G37*
G36*
X646530Y676115D02*
X641788D01*
Y671374D01*
X643940Y672265D01*
X645639Y673964D01*
X646530Y676115D01*
D02*
G37*
G36*
X639248D02*
X634506D01*
X635398Y673964D01*
X637097Y672265D01*
X639248Y671374D01*
Y676115D01*
D02*
G37*
G36*
X720921Y673861D02*
Y669119D01*
X725663D01*
X724772Y671271D01*
X723073Y672970D01*
X720921Y673861D01*
D02*
G37*
G36*
X718381D02*
X716230Y672970D01*
X714531Y671271D01*
X713640Y669119D01*
X718381D01*
Y673861D01*
D02*
G37*
G36*
X1282656Y672175D02*
X1280505Y671284D01*
X1278805Y669585D01*
X1277914Y667433D01*
X1282656D01*
Y672175D01*
D02*
G37*
G36*
X826243Y671040D02*
X821501D01*
Y666299D01*
X823652Y667190D01*
X825351Y668889D01*
X826243Y671040D01*
D02*
G37*
G36*
X818961D02*
X814219D01*
X815110Y668889D01*
X816810Y667190D01*
X818961Y666299D01*
Y671040D01*
D02*
G37*
G36*
X1008093Y684440D02*
X1005263D01*
X1002529Y683707D01*
X1000077Y682292D01*
X998076Y680290D01*
X996661Y677839D01*
X995928Y675105D01*
Y672274D01*
X996661Y669540D01*
X998076Y667089D01*
X1000077Y665088D01*
X1002529Y663672D01*
X1005263Y662940D01*
X1008093D01*
X1010827Y663672D01*
X1013279Y665088D01*
X1015280Y667089D01*
X1016695Y669540D01*
X1017428Y672274D01*
Y675105D01*
X1016695Y677839D01*
X1015280Y680290D01*
X1013279Y682292D01*
X1010827Y683707D01*
X1008093Y684440D01*
D02*
G37*
G36*
X725663Y666579D02*
X720921D01*
Y661838D01*
X723073Y662729D01*
X724772Y664428D01*
X725663Y666579D01*
D02*
G37*
G36*
X718381D02*
X713640D01*
X714531Y664428D01*
X716230Y662729D01*
X718381Y661838D01*
Y666579D01*
D02*
G37*
G36*
X1282656Y664893D02*
X1277914D01*
X1278805Y662742D01*
X1280505Y661043D01*
X1282656Y660152D01*
Y664893D01*
D02*
G37*
G36*
X731050Y662600D02*
X729157Y662350D01*
X727393Y661620D01*
X725879Y660458D01*
X724717Y658943D01*
X723986Y657180D01*
X723737Y655287D01*
Y653287D01*
X723986Y651395D01*
X724717Y649631D01*
X725879Y648116D01*
X727393Y646954D01*
X729157Y646224D01*
X731050Y645975D01*
X732942Y646224D01*
X734706Y646954D01*
X736220Y648116D01*
X737382Y649631D01*
X738113Y651395D01*
X738362Y653287D01*
Y655287D01*
X738113Y657180D01*
X737382Y658943D01*
X736220Y660458D01*
X734706Y661620D01*
X732942Y662350D01*
X731050Y662600D01*
D02*
G37*
G36*
X682550D02*
X680657Y662350D01*
X678893Y661620D01*
X677379Y660458D01*
X676217Y658943D01*
X675486Y657180D01*
X675237Y655287D01*
Y653287D01*
X675486Y651395D01*
X676217Y649631D01*
X677379Y648116D01*
X678893Y646954D01*
X680657Y646224D01*
X682550Y645975D01*
X684442Y646224D01*
X686206Y646954D01*
X687720Y648116D01*
X688883Y649631D01*
X689613Y651395D01*
X689862Y653287D01*
Y655287D01*
X689613Y657180D01*
X688883Y658943D01*
X687720Y660458D01*
X686206Y661620D01*
X684442Y662350D01*
X682550Y662600D01*
D02*
G37*
G36*
X1104099Y650460D02*
Y645718D01*
X1108841D01*
X1107950Y647869D01*
X1106251Y649569D01*
X1104099Y650460D01*
D02*
G37*
G36*
X1101559D02*
X1099408Y649569D01*
X1097709Y647869D01*
X1096818Y645718D01*
X1101559D01*
Y650460D01*
D02*
G37*
G36*
X1108841Y643178D02*
X1104099D01*
Y638437D01*
X1106251Y639328D01*
X1107950Y641027D01*
X1108841Y643178D01*
D02*
G37*
G36*
X1101559D02*
X1096818D01*
X1097709Y641027D01*
X1099408Y639328D01*
X1101559Y638437D01*
Y643178D01*
D02*
G37*
G36*
X1008093Y659040D02*
X1005263D01*
X1002529Y658307D01*
X1000077Y656892D01*
X998076Y654890D01*
X996661Y652439D01*
X995928Y649705D01*
Y646874D01*
X996661Y644140D01*
X998076Y641689D01*
X1000077Y639688D01*
X1002529Y638272D01*
X1005263Y637540D01*
X1008093D01*
X1010827Y638272D01*
X1013279Y639688D01*
X1015280Y641689D01*
X1016695Y644140D01*
X1017428Y646874D01*
Y649705D01*
X1016695Y652439D01*
X1015280Y654890D01*
X1013279Y656892D01*
X1010827Y658307D01*
X1008093Y659040D01*
D02*
G37*
%LPD*%
D13*
X1057618Y890793D02*
Y914082D01*
X1040907Y874081D02*
X1057618Y890793D01*
D59*
X806120Y866783D02*
X817236Y877899D01*
X840527Y878004D02*
X858922D01*
X817236Y877899D02*
X840422D01*
X840527Y878004D01*
X858922D02*
X891996D01*
X900000Y910000D02*
X947088Y862912D01*
Y862624D02*
Y862912D01*
X810000Y910000D02*
X900000D01*
X972029Y684249D02*
Y862601D01*
X984354Y874927D01*
X972029Y684249D02*
X978123Y678156D01*
X790000Y870000D02*
Y890000D01*
X810000Y910000D01*
X932101Y775273D02*
Y837899D01*
X891996Y878004D02*
X932101Y837899D01*
D61*
X731050Y654287D02*
D03*
X682550D02*
D03*
D62*
X741925Y624287D02*
D03*
X671675D02*
D03*
D63*
X1006678Y749890D02*
D03*
Y699090D02*
D03*
Y724490D02*
D03*
Y673690D02*
D03*
Y648290D02*
D03*
D64*
X806120Y866783D02*
D03*
X1021046Y884927D02*
D03*
X1020833Y904277D02*
D03*
X1020727Y922671D02*
D03*
X947088Y862624D02*
D03*
X984354Y874927D02*
D03*
X968517Y1003158D02*
D03*
X1021005Y941668D02*
D03*
X790000Y870000D02*
D03*
X932101Y775273D02*
D03*
X858922Y878004D02*
D03*
X1057618Y914082D02*
D03*
X1041297Y874169D02*
D03*
X978123Y678156D02*
D03*
X1280412Y834018D02*
D03*
X1060701Y946414D02*
D03*
X640518Y677385D02*
D03*
X719651Y667849D02*
D03*
X698901Y761212D02*
D03*
X766445Y799688D02*
D03*
X734781Y815281D02*
D03*
X691761Y871278D02*
D03*
X714368Y862262D02*
D03*
X682702Y944544D02*
D03*
X902733Y954185D02*
D03*
X775690Y1025244D02*
D03*
X771785Y927435D02*
D03*
X895764Y842432D02*
D03*
X846796Y789636D02*
D03*
X820231Y672310D02*
D03*
X900000Y760000D02*
D03*
X1075355Y1025096D02*
D03*
X1092508Y908146D02*
D03*
X1049337Y799864D02*
D03*
X1044429Y723392D02*
D03*
X1102829Y644448D02*
D03*
X1283926Y666163D02*
D03*
X1192075Y804251D02*
D03*
X1229132Y745910D02*
D03*
X1096172Y821908D02*
D03*
X1239767Y950741D02*
D03*
X1253459Y894081D02*
D03*
X1254034Y920740D02*
D03*
M02*
