G04*
G04 #@! TF.GenerationSoftware,Altium Limited,Altium Designer,22.6.1 (34)*
G04*
G04 Layer_Color=16711935*
%FSLAX44Y44*%
%MOMM*%
G71*
G04*
G04 #@! TF.SameCoordinates,A7F95BF2-09E6-4EF4-AC3E-D413731AB972*
G04*
G04*
G04 #@! TF.FilePolarity,Negative*
G04*
G01*
G75*
G04:AMPARAMS|DCode=54|XSize=1.4532mm|YSize=1.2532mm|CornerRadius=0.6266mm|HoleSize=0mm|Usage=FLASHONLY|Rotation=270.000|XOffset=0mm|YOffset=0mm|HoleType=Round|Shape=RoundedRectangle|*
%AMROUNDEDRECTD54*
21,1,1.4532,0.0000,0,0,270.0*
21,1,0.2000,1.2532,0,0,270.0*
1,1,1.2532,0.0000,-0.1000*
1,1,1.2532,0.0000,0.1000*
1,1,1.2532,0.0000,0.1000*
1,1,1.2532,0.0000,-0.1000*
%
%ADD54ROUNDEDRECTD54*%
G04:AMPARAMS|DCode=55|XSize=2.3032mm|YSize=2.1032mm|CornerRadius=0.5766mm|HoleSize=0mm|Usage=FLASHONLY|Rotation=270.000|XOffset=0mm|YOffset=0mm|HoleType=Round|Shape=RoundedRectangle|*
%AMROUNDEDRECTD55*
21,1,2.3032,0.9500,0,0,270.0*
21,1,1.1500,2.1032,0,0,270.0*
1,1,1.1532,-0.4750,-0.5750*
1,1,1.1532,-0.4750,0.5750*
1,1,1.1532,0.4750,0.5750*
1,1,1.1532,0.4750,-0.5750*
%
%ADD55ROUNDEDRECTD55*%
%ADD56C,1.9532*%
%ADD57C,0.9032*%
D54*
X731050Y654287D02*
D03*
X682550D02*
D03*
D55*
X741925Y624287D02*
D03*
X671675D02*
D03*
D56*
X1006678Y749890D02*
D03*
Y699090D02*
D03*
Y724490D02*
D03*
Y673690D02*
D03*
Y648290D02*
D03*
D57*
X806120Y866783D02*
D03*
X1021046Y884927D02*
D03*
X1020833Y904277D02*
D03*
X1020727Y922671D02*
D03*
X947088Y862624D02*
D03*
X984354Y874927D02*
D03*
X968517Y1003158D02*
D03*
X1021005Y941668D02*
D03*
X790000Y870000D02*
D03*
X932101Y775273D02*
D03*
X858922Y878004D02*
D03*
X1057618Y914082D02*
D03*
X1041297Y874169D02*
D03*
X978123Y678156D02*
D03*
X1280412Y834018D02*
D03*
X1060701Y946414D02*
D03*
X640518Y677385D02*
D03*
X719651Y667849D02*
D03*
X698901Y761212D02*
D03*
X766445Y799688D02*
D03*
X734781Y815281D02*
D03*
X691761Y871278D02*
D03*
X714368Y862262D02*
D03*
X682702Y944544D02*
D03*
X902733Y954185D02*
D03*
X775690Y1025244D02*
D03*
X771785Y927435D02*
D03*
X895764Y842432D02*
D03*
X846796Y789636D02*
D03*
X820231Y672310D02*
D03*
X900000Y760000D02*
D03*
X1075355Y1025096D02*
D03*
X1092508Y908146D02*
D03*
X1049337Y799864D02*
D03*
X1044429Y723392D02*
D03*
X1102829Y644448D02*
D03*
X1283926Y666163D02*
D03*
X1192075Y804251D02*
D03*
X1229132Y745910D02*
D03*
X1096172Y821908D02*
D03*
X1239767Y950741D02*
D03*
X1253459Y894081D02*
D03*
X1254034Y920740D02*
D03*
M02*
